<?xml version="1.0" encoding="UTF-8"?><svg id="b" xmlns="http://www.w3.org/2000/svg" viewBox="0 0 611.17 682.8"><g id="c"><g id="d"><path d="M421.18,310.27c-104.95,0-190.02,83.4-190.02,186.26s85.07,186.26,190.02,186.26,190-83.39,190-186.26-85.06-186.26-190-186.26Zm0,305.62c-67.25,0-121.76-53.45-121.76-119.36s54.51-119.35,121.76-119.35,121.75,53.43,121.75,119.35-54.52,119.36-121.75,119.36Z" fill="#40a69c"/><path d="M380,290.64V0h-68.16V148.41c-32.99-27.05-75.46-43.35-121.82-43.35C85.07,105.06,0,188.44,0,291.32s85.07,186.27,190.01,186.27,188.37-81.86,189.93-183.43h.06v-2.16c0-.23,.02-.45,.02-.68s-.02-.45-.02-.68Zm-189.98,120.03c-67.25,0-121.75-53.43-121.75-119.35s54.5-119.36,121.75-119.36,121.75,53.45,121.75,119.36-54.51,119.35-121.75,119.35Z" fill="#fc4e53"/></g></g></svg>